<?xml version="1.0" encoding="utf-8"?>
<!-- Generator: Adobe Illustrator 16.0.0, SVG Export Plug-In . SVG Version: 6.00 Build 0)  -->
<!DOCTYPE svg PUBLIC "-//W3C//DTD SVG 1.1//EN" "http://www.w3.org/Graphics/SVG/1.1/DTD/svg11.dtd">
<svg version="1.1" id="Layer_1" xmlns="http://www.w3.org/2000/svg" xmlns:xlink="http://www.w3.org/1999/xlink" x="0px" y="0px"
	 width="1633.858px" height="650px" viewBox="0 0 1633.858 650" enable-background="new 0 0 1633.858 650" xml:space="preserve">
<g opacity="0.15">
	<path fill="#FF4F75" d="M1692.917,298.618c-1.828-14.975-8.393-27.378-20.066-37.218c-11.322-10.224-24.821-14.974-40.497-14.974
		h-624.36c-15.344,0-28.845,4.75-40.517,14.974c-11.307,9.84-17.873,22.244-20.085,37.218c-4.002,36.478-6.178,40.13-6.178,84.296
		c0,178.062,68.235,267.086,204.709,267.086c43.781,0,81.733-14.943,112.753-44.855c29.918-28.473,49.615-67.506,59.109-117.861
		c0.369-2.199,0.738-4.393,1.104-6.586c0-1.459,0.369-1.824,0.724-1.824c0.368,0,0.368,0.365,0.368,0.365h0.366l0.37-0.365
		c0.721,0,0.721,0.365,0.721,1.824l1.106,6.586c9.479,50.355,29.19,89.389,59.104,117.861
		c31.388,29.912,68.974,44.855,113.127,44.855c136.471,0,204.708-89.023,204.708-267.086
		C1699.484,338.748,1697.29,335.096,1692.917,298.618 M1286.28,382.176c-0.268,12.75-0.887,25.469-2.16,38.059
		c-3.215,31.84-11.824,58.947-25.811,87.469c-21.893,45.988-57.283,68.588-106.19,68.588c-85.389,0-134.661-46.703-147.427-140.465
		c-0.72-6.207-1.458-12.779-1.809-19.346c-1.206-21.506,0.585-42.809,2.059-64.25c0.586-8.574,0.286-31.372,13.266-31.372h259.814
		c5.461,0,8.392,2.555,8.392,7.311C1286.414,345.865,1286.683,364.029,1286.28,382.176 M1637.375,382.965
		c0.653,15.846,0.354,31.801-1.036,48.473c-12.027,96.693-61.285,144.854-148.129,144.854c-49.261,0-85.037-23.338-106.931-70.402
		c-19.461-40.098-26.996-79.375-26.996-123.713V328.17c0-4.756,2.562-7.311,8.39-7.311h259.444c5.478,0,8.76,2.194,9.498,6.592
		C1634.63,346.502,1636.625,364.682,1637.375,382.965"/>
	<path d="M1495.644,115.019c18.174-1.522,34.571-0.408,51.79,2.246c17.086,2.453,33.884,7.511,50.364,14.254
		c16.464,6.966,32.061,17.05,45.657,29.771c13.299,13.232,23.518,29.622,29.497,47.115c3.082,8.952-1.692,18.718-10.651,21.765
		c-7.438,2.555-15.428-0.308-19.681-6.483l-1.138-1.667c-7.773-11.297-15.665-21.671-26.064-30.046
		c-10.334-8.417-22.075-15.309-34.738-21.44c-12.829-5.929-26.833-9.807-41.035-13.6c-14.086-3.375-29.545-6.038-43.28-7.612
		l-1.237-0.142c-9.414-1.072-16.181-9.598-15.092-19.02C1480.973,121.896,1487.654,115.69,1495.644,115.019"/>
	<path d="M1224.576,464.611c0,41.111-21.071,74.434-47.067,74.434c-26.009,0-47.081-33.322-47.081-74.434
		s21.072-74.434,47.081-74.434C1203.504,390.178,1224.576,423.5,1224.576,464.611"/>
	<path fill="#FFFFFF" d="M1174.95,415.896c0,14.217-11.525,25.725-25.729,25.725c-14.202,0-25.726-11.508-25.726-25.725
		c0-14.221,11.523-25.729,25.726-25.729C1163.424,390.168,1174.95,401.676,1174.95,415.896"/>
	<path d="M1506.299,464.611c0,41.111-21.073,74.434-47.083,74.434c-25.996,0-47.067-33.322-47.067-74.434
		s21.071-74.434,47.067-74.434C1485.226,390.178,1506.299,423.5,1506.299,464.611"/>
	<path fill="#FFFFFF" d="M1456.669,415.896c0,14.217-11.523,25.725-25.726,25.725c-14.221,0-25.726-11.508-25.726-25.725
		c0-14.221,11.505-25.729,25.726-25.729C1445.146,390.168,1456.669,401.676,1456.669,415.896"/>
</g>
</svg>
