<?xml version="1.0" encoding="utf-8"?>
<!-- Generator: Adobe Illustrator 16.0.0, SVG Export Plug-In . SVG Version: 6.00 Build 0)  -->
<!DOCTYPE svg PUBLIC "-//W3C//DTD SVG 1.1//EN" "http://www.w3.org/Graphics/SVG/1.1/DTD/svg11.dtd">
<svg version="1.1" id="Layer_1" xmlns="http://www.w3.org/2000/svg" xmlns:xlink="http://www.w3.org/1999/xlink" x="0px" y="0px"
	 width="1191px" height="717px" viewBox="0 0 1191 717" enable-background="new 0 0 1191 717" xml:space="preserve">
<g opacity="0.15">
	<path fill="#FF4F75" d="M1264.585,289.663c-2.223-18.211-10.207-33.297-24.403-45.264c-13.77-12.434-30.188-18.211-49.252-18.211
		H431.605c-18.66,0-35.079,5.777-49.274,18.211c-13.751,11.966-21.736,27.053-24.426,45.264
		c-4.868,44.362-7.514,48.803-7.514,102.519C350.391,608.733,433.375,717,599.35,717c53.245,0,99.402-18.174,137.126-54.551
		c36.385-34.629,60.34-82.101,71.887-143.341c0.448-2.672,0.897-5.34,1.343-8.008c0-1.773,0.449-2.219,0.88-2.219
		c0.448,0,0.448,0.445,0.448,0.445h0.445l0.449-0.445c0.876,0,0.876,0.445,0.876,2.219l1.347,8.008
		c11.528,61.24,35.501,108.712,71.882,143.341C924.205,698.826,969.914,717,1023.611,717c165.972,0,248.959-108.267,248.959-324.818
		C1272.57,338.466,1269.902,334.024,1264.585,289.663 M770.048,391.283c-0.326,15.503-1.08,30.975-2.627,46.284
		c-3.91,38.723-14.381,71.689-31.391,106.378c-26.625,55.928-69.666,83.414-129.145,83.414
		c-103.848,0-163.771-56.799-179.295-170.831c-0.875-7.548-1.773-15.54-2.2-23.524c-1.466-26.154,0.712-52.065,2.504-78.138
		c0.712-10.43,0.349-38.154,16.133-38.154h315.977c6.642,0,10.207,3.106,10.207,8.89
		C770.211,347.122,770.538,369.214,770.048,391.283 M1197.037,392.241c0.794,19.272,0.43,38.674-1.262,58.951
		c-14.627,117.595-74.531,176.167-180.149,176.167c-59.908,0-103.417-28.385-130.043-85.621
		c-23.668-48.767-32.833-96.534-32.833-150.455v-65.682c0-5.784,3.116-8.89,10.203-8.89h315.527c6.661,0,10.653,2.668,11.551,8.015
		C1193.697,347.897,1196.124,370.008,1197.037,392.241"/>
	<path d="M1024.669,66.376c22.103-1.852,42.043-0.498,62.984,2.731c20.778,2.983,41.208,9.135,61.252,17.335
		c20.021,8.473,38.989,20.736,55.526,36.207c16.174,16.092,28.6,36.024,35.872,57.3c3.748,10.887-2.059,22.764-12.953,26.47
		c-9.046,3.106-18.764-0.375-23.936-7.885l-1.384-2.026c-9.454-13.74-19.05-26.357-31.698-36.542
		c-12.567-10.235-26.846-18.617-42.247-26.073c-15.603-7.211-32.634-11.927-49.905-16.541c-17.131-4.104-35.932-7.343-52.637-9.257
		l-1.506-0.173c-11.447-1.304-19.677-11.673-18.352-23.131C1006.825,74.74,1014.951,67.193,1024.669,66.376"/>
	<path d="M695.005,491.536c0,49.998-25.625,90.523-57.241,90.523c-31.632,0-57.259-40.525-57.259-90.523
		s25.627-90.523,57.259-90.523C669.38,401.013,695.005,441.538,695.005,491.536"/>
	<path fill="#FFFFFF" d="M634.651,432.292c0,17.29-14.016,31.286-31.291,31.286c-17.271,0-31.286-13.996-31.286-31.286
		c0-17.295,14.015-31.29,31.286-31.29C620.636,401.002,634.651,414.997,634.651,432.292"/>
	<path d="M1037.626,491.536c0,49.998-25.628,90.523-57.26,90.523c-31.616,0-57.24-40.525-57.24-90.523s25.624-90.523,57.24-90.523
		C1011.998,401.013,1037.626,441.538,1037.626,491.536"/>
	<path fill="#FFFFFF" d="M977.269,432.292c0,17.29-14.015,31.286-31.287,31.286c-17.294,0-31.286-13.996-31.286-31.286
		c0-17.295,13.992-31.29,31.286-31.29C963.254,401.002,977.269,414.997,977.269,432.292"/>
</g>
</svg>
