<?xml version="1.0" encoding="utf-8"?>
<!-- Generator: Adobe Illustrator 16.0.0, SVG Export Plug-In . SVG Version: 6.00 Build 0)  -->
<!DOCTYPE svg PUBLIC "-//W3C//DTD SVG 1.1//EN" "http://www.w3.org/Graphics/SVG/1.1/DTD/svg11.dtd">
<svg version="1.1" id="Layer_1" xmlns="http://www.w3.org/2000/svg" xmlns:xlink="http://www.w3.org/1999/xlink" x="0px" y="0px"
	 width="255.375px" height="313.708px" viewBox="0 0 255.375 313.708" enable-background="new 0 0 255.375 313.708"
	 xml:space="preserve">
<path d="M171.313,207.052c-0.183-0.921-0.688-1.744-1.511-2.429c-0.824-0.688-1.785-1.055-2.845-1.055l-89.524,0.416
	c-1.105,0.089-2.106,0.545-2.979,1.368c-0.868,0.872-1.329,1.878-1.329,3.067v0.322c0.733,9.437,2.612,17.996,5.675,25.693
	c3.073,7.741,7.379,14.149,12.92,19.279s12.366,8.426,20.424,9.938c2.929,0.55,5.908,0.822,8.931,0.822
	c6.502,0,12.594-1.145,18.274-3.479c5.67-2.289,10.715-5.219,15.111-8.882c4.396-3.622,7.916-7.468,10.576-11.448
	c4.902-7.469,7.375-15.389,7.375-23.814C172.414,213.688,172.047,210.393,171.313,207.052 M157.896,235.396
	c-2.289,3.479-5.268,6.735-8.93,9.803c-3.664,3.068-7.876,5.537-12.639,7.46c-4.764,1.923-9.893,2.845-15.389,2.845
	c-2.657,0-5.313-0.232-7.92-0.733c-6.046-1.146-11.176-3.712-15.434-7.697c-4.213-3.984-7.558-8.976-10.076-14.883
	c-2.518-5.953-4.168-12.411-5.04-19.369l80.786-0.367c0.183,1.467,0.269,2.93,0.269,4.347
	C163.523,223.397,161.649,229.583,157.896,235.396"/>
<path fill="none" stroke="#2B3238" stroke-width="0.5" stroke-miterlimit="10" d="M171.313,207.052
	c-0.183-0.921-0.688-1.744-1.511-2.429c-0.824-0.688-1.785-1.055-2.845-1.055l-89.524,0.416c-1.105,0.089-2.106,0.545-2.979,1.368
	c-0.868,0.872-1.329,1.878-1.329,3.067v0.322c0.733,9.437,2.612,17.996,5.675,25.693c3.073,7.741,7.379,14.149,12.92,19.279
	s12.366,8.426,20.424,9.938c2.929,0.55,5.908,0.822,8.931,0.822c6.502,0,12.594-1.145,18.274-3.479
	c5.67-2.289,10.715-5.219,15.111-8.882c4.396-3.622,7.916-7.468,10.576-11.448c4.902-7.469,7.375-15.389,7.375-23.814
	C172.414,213.688,172.047,210.393,171.313,207.052z M157.896,235.396c-2.289,3.479-5.268,6.735-8.93,9.803
	c-3.664,3.068-7.876,5.537-12.639,7.46c-4.764,1.923-9.893,2.845-15.389,2.845c-2.657,0-5.313-0.232-7.92-0.733
	c-6.046-1.146-11.176-3.712-15.434-7.697c-4.213-3.984-7.558-8.976-10.076-14.883c-2.518-5.953-4.168-12.411-5.04-19.369
	l80.786-0.367c0.183,1.467,0.269,2.93,0.269,4.347C163.523,223.397,161.649,229.583,157.896,235.396z"/>
<path fill="#FF4F75" d="M222.238,85.828c-0.51-3.982-2.244-7.325-5.357-9.937c-3.023-2.746-6.641-3.982-10.809-3.982H39.379
	c-4.123,0-7.701,1.236-10.854,3.982c-3.023,2.611-4.763,5.954-5.357,9.937c-1.056,9.757-1.65,10.718-1.65,22.486
	c0,47.582,18.229,71.35,54.682,71.35c11.677,0,21.797-3.984,30.08-11.999c8.014-7.601,13.287-18.043,15.805-31.462
	c0.094-0.595,0.183-1.189,0.272-1.739c0-0.411,0.095-0.503,0.233-0.503c0.089,0,0.089,0.092,0.089,0.092h0.094l0.089-0.092
	c0.184,0,0.184,0.092,0.184,0.503l0.322,1.739c2.518,13.419,7.786,23.861,15.751,31.462c8.376,8.015,18.412,11.999,30.228,11.999
	c36.453,0,54.633-23.768,54.633-71.35C223.979,96.546,223.428,95.585,222.238,85.828 M113.658,108.131
	c-0.045,3.391-0.228,6.825-0.55,10.168c-0.872,8.518-3.162,15.754-6.914,23.356c-5.863,12.271-15.295,18.317-28.35,18.317
	c-22.804,0-35.947-12.457-39.382-37.508c-0.184-1.648-0.367-3.435-0.461-5.175c-0.317-5.724,0.139-11.448,0.546-17.126
	c0.143-2.337,0.098-8.381,3.533-8.381h69.377c1.467,0,2.245,0.687,2.245,1.923C113.703,98.422,113.797,103.277,113.658,108.131
	 M207.127,121.275c-3.207,25.829-16.35,38.697-39.521,38.697c-13.193,0-22.714-6.229-28.577-18.823
	c-5.175-10.671-7.191-21.155-7.191-33.019V93.706c0-1.236,0.688-1.923,2.244-1.923h69.244c1.462,0,2.334,0.55,2.558,1.74
	c0.782,5.082,1.333,9.937,1.517,14.838C207.583,112.574,207.494,116.834,207.127,121.275"/>
<path d="M184.596,11.619c4.383,2.115,8.001,4.602,11.602,7.551c3.591,2.885,6.766,6.335,9.637,10.125
	c2.836,3.833,5.055,8.271,6.449,13.043c1.257,4.85,1.378,10.007,0.376,14.839c-0.51,2.475-2.934,4.064-5.407,3.558
	c-2.057-0.428-3.506-2.172-3.645-4.168l-0.035-0.535c-0.246-3.655-0.648-7.112-1.906-10.446c-1.229-3.343-2.996-6.521-5.07-9.649
	c-2.143-3.11-4.835-5.903-7.586-8.705c-2.777-2.694-5.965-5.404-8.912-7.634l-0.265-0.197c-2.013-1.53-2.415-4.407-0.886-6.422
	C180.289,11.208,182.668,10.685,184.596,11.619"/>
<path d="M50.768,126.599c3.354-2.355,6.668-3.996,10.316-5.434c3.595-1.458,7.436-2.377,11.402-2.933
	c3.983-0.513,8.159-0.323,12.241,0.609c4.083,1.066,7.926,3.093,11.069,5.814c1.611,1.39,1.786,3.826,0.397,5.437
	c-1.158,1.337-3.036,1.688-4.561,0.97l-0.409-0.194c-2.789-1.319-5.497-2.442-8.466-2.885c-2.963-0.467-6.026-0.473-9.178-0.23
	c-3.167,0.299-6.326,1.133-9.516,2.007c-3.122,0.937-6.423,2.169-9.273,3.422l-0.253,0.114c-1.951,0.853-4.232-0.032-5.087-1.984
	C48.698,129.598,49.29,127.634,50.768,126.599"/>
<path d="M190.485,126.599c-3.354-2.355-6.668-3.996-10.316-5.434c-3.595-1.458-7.436-2.377-11.402-2.933
	c-3.983-0.513-8.159-0.323-12.241,0.609c-4.083,1.066-7.926,3.093-11.069,5.814c-1.611,1.39-1.786,3.826-0.397,5.437
	c1.158,1.337,3.036,1.688,4.561,0.97l0.409-0.194c2.789-1.319,5.497-2.442,8.466-2.885c2.963-0.467,6.026-0.473,9.178-0.23
	c3.167,0.299,6.326,1.133,9.516,2.007c3.122,0.937,6.423,2.169,9.273,3.422l0.253,0.114c1.951,0.853,4.232-0.032,5.087-1.984
	C192.555,129.598,191.963,127.634,190.485,126.599"/>
</svg>
